# 3ds Max Wavefront OBJ Exporter v0.97b - (c)2007 guruware
# File Created: 29.03.2019 13:32:44

mtllib ReceptionDesk_LP.mtl

#
# object Low_Poly
#

v  -0.0289 3.1699 -354.3307
v  39.8551 3.1699 -354.3307
v  39.8551 -0.6642 -354.3307
v  -0.0289 -0.6642 -354.3307
v  39.8181 -0.6643 0.1472
v  39.8181 3.5808 0.1472
v  -0.0289 3.5808 0.1472
v  -0.0289 -0.6643 0.1472
v  39.8551 -0.6642 -349.5931
v  -0.0289 -0.6642 -349.5855
v  39.8551 3.1699 -349.5931
v  -0.0289 39.5119 -354.3307
v  -0.0289 39.5119 -349.5855
v  39.8551 39.5119 -349.5931
v  39.8551 39.5119 -354.3307
v  -0.0289 34.4481 -354.3307
v  -0.0289 34.4481 -349.5855
v  -0.0289 -0.6642 -39.5194
v  39.8551 -0.6642 -39.8001
v  -0.0289 39.5119 0.1472
v  39.8181 39.5119 0.1472
v  39.8551 39.5119 -39.8001
v  -0.0289 39.5119 -39.5194
v  -0.0289 3.5808 -39.5194
v  39.8181 34.4481 0.1472
v  47.8009 34.4481 0.1472
v  47.8009 39.5119 0.1472
v  47.8375 -0.6642 -39.8001
v  47.8009 -0.6643 0.1472
v  47.8375 39.5119 -39.8001
v  39.8551 3.5808 -39.8001
v  47.8375 3.5808 -39.8001
v  354.0516 -0.6642 -39.8001
v  354.0516 3.4162 -39.8001
v  354.0516 3.4162 0.1472
v  354.0516 -0.6643 0.1472
v  278.1384 -0.6643 0.1472
v  278.1384 3.4162 0.1472
v  266.9352 3.4162 0.1472
v  266.9352 -0.6643 0.1472
v  278.1545 -0.6642 -39.8001
v  266.9536 -0.6642 -39.8001
v  278.1384 39.5119 0.1472
v  278.1545 39.5119 -39.8001
v  266.9536 39.5119 -39.8001
v  266.9352 39.5119 0.1472
v  278.1545 34.4481 -39.8001
v  266.9536 34.4481 -39.8001
v  236.1282 39.5119 -39.8001
v  236.1005 39.5119 0.1472
v  236.1282 34.4481 -39.8001
v  39.8551 34.4481 -354.3307
v  -0.0289 34.4481 0.1472
v  39.8551 34.4481 -349.5931
v  -0.0289 3.1699 -349.5855
v  -0.0289 34.4481 -39.5194
v  47.8009 3.5808 0.1472
v  47.8375 34.4481 -39.8001
v  39.8551 34.4481 -39.8001
v  354.0516 39.5119 -39.8001
v  354.0516 39.5119 0.1472
v  354.0516 34.4481 0.1472
v  354.0516 34.4481 -39.8001
v  349.6923 39.5119 0.1472
v  349.6923 34.4481 0.1472
v  349.6932 3.4162 -39.8001
v  349.6932 34.4481 -39.8001
v  236.1005 34.4481 0.1472
v  266.9352 34.4481 0.1472
v  -0.0289 39.5119 -236.3053
v  39.8551 39.5119 -236.5158
v  39.8551 39.5119 -267.2659
v  -0.0289 39.5119 -267.1255
v  -0.0289 34.4481 -236.3053
v  -0.0289 34.4481 -267.1255
v  39.8551 34.4481 -236.5158
v  39.8551 34.4481 -267.2659
v  39.8551 -0.6643 -224.9828
v  -0.0289 -0.6643 -224.7688
v  -0.0289 -0.6643 -236.3053
v  39.8551 -0.6643 -236.5158
v  39.8551 34.4481 -224.9828
v  39.8551 3.5808 -224.9828
v  39.8551 3.5808 -236.5158
v  -0.0289 39.5119 -224.7688
v  39.8551 39.5119 -224.9828
v  -0.0289 34.4481 -224.7688
v  -0.0289 3.5808 -224.7688
v  -0.0289 3.5808 -236.3053
v  -0.0289 3.1699 -267.1255
v  39.8551 3.1699 -267.2659
v  266.9536 3.4162 -39.8001
v  236.1282 3.5808 -39.8001
v  236.1005 3.5808 0.1472
v  236.1005 -0.6643 0.1472
v  236.1282 -0.6642 -39.8001
v  349.6923 -0.6643 0.1472
v  349.6923 3.4162 0.1472
v  349.6932 -0.6642 -39.8001
v  349.6932 39.5119 -39.8001
v  278.1384 34.4481 0.1472
v  278.1545 3.4162 -39.8001
v  39.8551 -0.6642 -43.0409
v  39.8551 3.5808 -43.0409
v  -0.0289 34.4481 -42.7716
v  -0.0289 3.5808 -42.7716
v  224.5710 39.5119 0.1472
v  224.5710 34.4481 0.1472
v  224.5710 -0.6643 0.1472
v  224.5993 -0.6642 -39.8001
v  224.5993 39.5119 -39.8001
v  224.5993 3.5808 -39.8001
v  224.5710 3.5808 0.1472
v  224.5993 34.4481 -39.8001
v  136.2313 39.5119 0.1472
v  136.2313 34.4481 0.1472
v  136.2313 -0.6643 0.1472
v  136.2637 -0.6642 -39.8001
v  136.2637 39.5119 -39.8001
v  136.2637 3.5808 -39.8001
v  136.2313 3.5808 0.1472
v  136.2637 34.4481 -39.8001
v  -0.0289 -0.6642 -42.7716
v  39.8551 34.4481 -43.0409
v  -0.0289 39.5119 -42.7716
v  39.8551 39.5119 -43.0409
v  39.8551 -0.6642 -134.4268
v  39.8551 3.5808 -134.4268
v  -0.0289 34.4481 -134.1853
v  -0.0289 3.5808 -134.1853
v  -0.0289 -0.6643 -134.1853
v  39.8551 34.4481 -134.4268
v  39.8551 39.5119 -134.4268
v  -0.0289 39.5119 -134.1853
v  39.8551 -0.6642 -267.2659
v  -0.0289 -0.6642 -267.1255
v  -0.0289 -0.6642 -270.9544
v  39.8551 -0.6642 -271.0886
v  39.8551 3.1699 -271.0886
v  39.8551 34.4481 -271.0886
v  39.8551 39.5119 -271.0886
v  -0.0289 39.5119 -270.9544
v  -0.0289 34.4481 -270.9544
v  -0.0289 3.1699 -270.9544
v  -0.0289 -0.6642 -310.3417
v  39.8551 -0.6642 -310.4125
v  39.8551 3.1699 -310.4125
v  39.8551 34.4481 -310.4125
v  39.8551 39.5119 -310.4125
v  -0.0289 39.5119 -310.3417
v  -0.0289 34.4481 -310.3417
v  -0.0289 3.1699 -310.3417
# 152 vertices

vn 0.0000 0.0000 -1.0000
vn 0.0000 -0.0000 1.0000
vn 0.0000 -1.0000 -0.0000
vn 1.0000 0.0000 -0.0000
vn 0.0000 1.0000 0.0000
vn -0.0000 1.0000 0.0000
vn -1.0000 0.0000 -0.0000
vn -0.0000 -0.0000 1.0000
vn -0.0000 -1.0000 -0.0000
vn 1.0000 -0.0000 -0.0000
vn -0.0000 0.0000 1.0000
vn 1.0000 0.0000 0.0000
vn 0.0000 -1.0000 0.0000
vn -0.0053 0.0000 -1.0000
vn 0.0035 -0.0000 1.0000
vn -1.0000 -0.0000 -0.0005
vn -1.0000 0.0000 -0.0005
vn 1.0000 -0.0000 0.0007
vn 0.0000 0.0000 1.0000
vn -0.0000 1.0000 -0.0000
# 20 vertex normals

vt 0.4736 0.6090 0.0000
vt 0.4736 0.7017 0.0000
vt 0.4328 0.7017 0.0000
vt 0.4328 0.6090 0.0000
vt 0.2356 0.2566 0.0000
vt 0.2356 0.2664 0.0000
vt 0.1429 0.2664 0.0000
vt 0.1429 0.2566 0.0000
vt 0.4225 0.7010 0.0000
vt 0.4115 0.7010 0.0000
vt 0.4115 0.6082 0.0000
vt 0.4225 0.6082 0.0000
vt 0.8758 0.5280 0.0000
vt 0.8648 0.5280 0.0000
vt 0.8648 0.4871 0.0000
vt 0.8758 0.4871 0.0000
vt 0.0272 0.8490 0.0000
vt 0.0272 0.8380 0.0000
vt 0.1199 0.8380 0.0000
vt 0.1199 0.8490 0.0000
vt 0.1424 0.2197 0.0000
vt 0.1535 0.2197 0.0000
vt 0.1535 0.2315 0.0000
vt 0.1424 0.2315 0.0000
vt 0.9789 0.8314 0.0000
vt 0.9789 0.9241 0.0000
vt 0.8866 0.9241 0.0000
vt 0.8860 0.8314 0.0000
vt 0.0272 0.0247 0.0000
vt 0.1198 0.0247 0.0000
vt 0.1199 0.1176 0.0000
vt 0.0272 0.1169 0.0000
vt 0.9668 0.1381 0.0000
vt 0.9668 0.1479 0.0000
vt 0.8745 0.1479 0.0000
vt 0.8745 0.1381 0.0000
vt 0.2356 0.3382 0.0000
vt 0.2542 0.3382 0.0000
vt 0.2542 0.3500 0.0000
vt 0.2356 0.3500 0.0000
vt 0.8860 0.8128 0.0000
vt 0.9789 0.8129 0.0000
vt 0.1384 0.0247 0.0000
vt 0.1385 0.1176 0.0000
vt 0.8748 0.3861 0.0000
vt 0.8562 0.3861 0.0000
vt 0.8562 0.3762 0.0000
vt 0.8748 0.3762 0.0000
vt 0.1283 0.7087 0.0000
vt 0.1378 0.7087 0.0000
vt 0.1378 0.8015 0.0000
vt 0.1283 0.8015 0.0000
vt 0.7898 0.2566 0.0000
vt 0.7898 0.2660 0.0000
vt 0.7638 0.2660 0.0000
vt 0.7638 0.2566 0.0000
vt 0.1549 0.8134 0.0000
vt 0.1549 0.9063 0.0000
vt 0.1288 0.9063 0.0000
vt 0.1288 0.8134 0.0000
vt 0.6740 0.0247 0.0000
vt 0.6741 0.1176 0.0000
vt 0.6480 0.1176 0.0000
vt 0.6480 0.0247 0.0000
vt 0.3206 0.4696 0.0000
vt 0.3206 0.4578 0.0000
vt 0.3467 0.4578 0.0000
vt 0.3467 0.4696 0.0000
vt 0.5764 0.1176 0.0000
vt 0.5763 0.0247 0.0000
vt 0.4184 0.4578 0.0000
vt 0.4184 0.4696 0.0000
vt 0.5262 0.6090 0.0000
vt 0.5262 0.7017 0.0000
vt 0.5144 0.7017 0.0000
vt 0.5144 0.6090 0.0000
vt 0.1429 0.3500 0.0000
vt 0.1429 0.3382 0.0000
vt 0.8758 0.5806 0.0000
vt 0.8648 0.5806 0.0000
vt 0.8648 0.5688 0.0000
vt 0.8758 0.5688 0.0000
vt 0.1424 0.1789 0.0000
vt 0.1535 0.1789 0.0000
vt 0.9668 0.2315 0.0000
vt 0.8745 0.2315 0.0000
vt 0.8745 0.2197 0.0000
vt 0.9668 0.2197 0.0000
vt 0.2542 0.2664 0.0000
vt 0.8748 0.4696 0.0000
vt 0.8562 0.4696 0.0000
vt 0.8562 0.4578 0.0000
vt 0.8748 0.4578 0.0000
vt 0.2217 0.7087 0.0000
vt 0.2217 0.8015 0.0000
vt 0.2099 0.8015 0.0000
vt 0.2099 0.7087 0.0000
vt 0.9664 0.3500 0.0000
vt 0.9562 0.3500 0.0000
vt 0.9562 0.3382 0.0000
vt 0.9664 0.3382 0.0000
vt 0.1441 0.3857 0.0000
vt 0.1543 0.3857 0.0000
vt 0.1543 0.4578 0.0000
vt 0.1441 0.4578 0.0000
vt 0.7638 0.3500 0.0000
vt 0.6921 0.3500 0.0000
vt 0.6921 0.3382 0.0000
vt 0.7638 0.3382 0.0000
vt 0.0272 0.5746 0.0000
vt 0.1199 0.5751 0.0000
vt 0.1199 0.6466 0.0000
vt 0.0272 0.6462 0.0000
vt 0.4169 0.2197 0.0000
vt 0.4169 0.2315 0.0000
vt 0.3452 0.2315 0.0000
vt 0.3452 0.2197 0.0000
vt 0.6018 0.5806 0.0000
vt 0.6018 0.5688 0.0000
vt 0.6733 0.5688 0.0000
vt 0.6733 0.5806 0.0000
vt 0.4513 0.8314 0.0000
vt 0.4518 0.9241 0.0000
vt 0.4290 0.9241 0.0000
vt 0.4285 0.8314 0.0000
vt 0.5790 0.5688 0.0000
vt 0.5790 0.4970 0.0000
vt 0.6018 0.4970 0.0000
vt 0.0272 0.5517 0.0000
vt 0.1199 0.5522 0.0000
vt 0.4398 0.2197 0.0000
vt 0.4398 0.2315 0.0000
vt 0.5790 0.5806 0.0000
vt 0.4398 0.1381 0.0000
vt 0.4398 0.1479 0.0000
vt 0.4169 0.1479 0.0000
vt 0.4169 0.1381 0.0000
vt 0.6407 0.6040 0.0000
vt 0.7335 0.6037 0.0000
vt 0.7335 0.6752 0.0000
vt 0.6407 0.6757 0.0000
vt 0.4301 0.7922 0.0000
vt 0.5229 0.7922 0.0000
vt 0.5229 0.8021 0.0000
vt 0.4301 0.8021 0.0000
vt 0.5350 0.6497 0.0000
vt 0.6278 0.6497 0.0000
vt 0.6278 0.6905 0.0000
vt 0.5350 0.6905 0.0000
vt 0.2309 0.7300 0.0000
vt 0.3238 0.7301 0.0000
vt 0.3238 0.8018 0.0000
vt 0.2309 0.8017 0.0000
vt 0.4119 0.7105 0.0000
vt 0.4119 0.8034 0.0000
vt 0.3397 0.8034 0.0000
vt 0.3397 0.7105 0.0000
vt 0.1393 0.6102 0.0000
vt 0.1393 0.7031 0.0000
vt 0.1295 0.7031 0.0000
vt 0.1295 0.6102 0.0000
vt 0.9562 0.2566 0.0000
vt 0.9562 0.2660 0.0000
vt 0.3213 0.8134 0.0000
vt 0.3213 0.9063 0.0000
vt 0.8404 0.0247 0.0000
vt 0.8404 0.1176 0.0000
vt 0.1543 0.4696 0.0000
vt 0.7898 0.3382 0.0000
vt 0.7898 0.3500 0.0000
vt 0.3467 0.3762 0.0000
vt 0.3467 0.3857 0.0000
vt 0.3206 0.3857 0.0000
vt 0.3206 0.3762 0.0000
vt 0.1543 0.3762 0.0000
vt 0.9664 0.2566 0.0000
vt 0.9664 0.2660 0.0000
vt 0.3314 0.8134 0.0000
vt 0.3314 0.9063 0.0000
vt 0.8506 0.0247 0.0000
vt 0.8506 0.1176 0.0000
vt 0.1441 0.4696 0.0000
vt 0.1441 0.3762 0.0000
vt 0.4214 0.7105 0.0000
vt 0.4214 0.8034 0.0000
vt 0.2542 0.2566 0.0000
vt 0.1444 0.4871 0.0000
vt 0.2185 0.4871 0.0000
vt 0.2185 0.4970 0.0000
vt 0.1444 0.4970 0.0000
vt 0.8003 0.2197 0.0000
vt 0.8003 0.1479 0.0000
vt 0.4301 0.7204 0.0000
vt 0.5229 0.7204 0.0000
vt 0.2111 0.6102 0.0000
vt 0.2111 0.7031 0.0000
vt 0.6653 0.3500 0.0000
vt 0.6653 0.3382 0.0000
vt 0.8860 0.3749 0.0000
vt 0.9789 0.3750 0.0000
vt 0.9789 0.4018 0.0000
vt 0.8860 0.4017 0.0000
vt 0.5495 0.1176 0.0000
vt 0.5495 0.0247 0.0000
vt 0.4184 0.3861 0.0000
vt 0.4184 0.3762 0.0000
vt 0.4452 0.3762 0.0000
vt 0.4452 0.3861 0.0000
vt 0.6921 0.2664 0.0000
vt 0.6653 0.2664 0.0000
vt 0.4452 0.4578 0.0000
vt 0.4452 0.4696 0.0000
vt 0.6921 0.2566 0.0000
vt 0.6653 0.2566 0.0000
vt 0.4598 0.3500 0.0000
vt 0.4598 0.3382 0.0000
vt 0.9789 0.6072 0.0000
vt 0.8860 0.6072 0.0000
vt 0.3441 0.1176 0.0000
vt 0.3440 0.0247 0.0000
vt 0.6506 0.3762 0.0000
vt 0.6506 0.3861 0.0000
vt 0.4598 0.2664 0.0000
vt 0.6506 0.4578 0.0000
vt 0.6506 0.4696 0.0000
vt 0.4598 0.2566 0.0000
vt 0.8124 0.9241 0.0000
vt 0.8118 0.8314 0.0000
vt 0.1444 0.5688 0.0000
vt 0.2185 0.5688 0.0000
vt 0.0272 0.1911 0.0000
vt 0.1199 0.1918 0.0000
vt 0.8003 0.2315 0.0000
vt 0.1444 0.5806 0.0000
vt 0.2185 0.5806 0.0000
vt 0.8003 0.1381 0.0000
vt 0.3996 0.4871 0.0000
vt 0.3996 0.4970 0.0000
vt 0.6192 0.2197 0.0000
vt 0.6192 0.1479 0.0000
vt 0.6313 0.9241 0.0000
vt 0.6307 0.8314 0.0000
vt 0.3996 0.5688 0.0000
vt 0.1199 0.3728 0.0000
vt 0.0272 0.3723 0.0000
vt 0.6192 0.2315 0.0000
vt 0.3996 0.5806 0.0000
vt 0.6192 0.1381 0.0000
vt 0.5790 0.4871 0.0000
vt 0.6018 0.4871 0.0000
vt 0.2200 0.7010 0.0000
vt 0.2197 0.6082 0.0000
vt 0.2286 0.6082 0.0000
vt 0.2289 0.7010 0.0000
vt 0.6733 0.5280 0.0000
vt 0.6822 0.5280 0.0000
vt 0.6822 0.5688 0.0000
vt 0.1199 0.6555 0.0000
vt 0.0272 0.6551 0.0000
vt 0.3363 0.2315 0.0000
vt 0.3363 0.2197 0.0000
vt 0.6822 0.5806 0.0000
vt 0.3452 0.1381 0.0000
vt 0.3452 0.1789 0.0000
vt 0.3363 0.1789 0.0000
vt 0.3363 0.1381 0.0000
vt 0.3202 0.6082 0.0000
vt 0.3204 0.7010 0.0000
vt 0.7737 0.5280 0.0000
vt 0.7737 0.5688 0.0000
vt 0.1199 0.7469 0.0000
vt 0.0272 0.7467 0.0000
vt 0.2447 0.2315 0.0000
vt 0.2447 0.2197 0.0000
vt 0.7737 0.5806 0.0000
vt 0.2447 0.1789 0.0000
vt 0.2447 0.1381 0.0000
vt 0.1535 0.1381 0.0000
vt 0.1424 0.1381 0.0000
vt 0.5350 0.6089 0.0000
vt 0.6278 0.6089 0.0000
vt 0.6733 0.4871 0.0000
vt 0.6822 0.4871 0.0000
vt 0.7737 0.4871 0.0000
# 284 texture coords

o Low_Poly
g Low_Poly
usemtl wire_213154229
s 1
f 1/1/1 2/2/1 3/3/1 
f 3/3/1 4/4/1 1/1/1 
s 4
f 5/5/2 6/6/2 7/7/2 
f 7/7/2 8/8/2 5/5/2 
f 3/9/3 9/10/3 10/11/3 
f 10/11/3 4/12/3 3/9/3 
s 16
f 2/13/4 11/14/4 9/15/4 
f 9/15/4 3/16/4 2/13/4 
s 2
f 12/17/5 13/18/6 14/19/6 
f 14/19/6 15/20/5 12/17/5 
s 16
f 16/21/7 17/22/7 13/23/7 
f 13/23/7 12/24/7 16/21/7 
s 1
f 5/25/3 8/26/3 18/27/3 
f 18/27/3 19/28/3 5/25/3 
s 2
f 20/29/6 21/30/5 22/31/6 
f 22/31/6 23/32/6 20/29/6 
s 16
f 8/33/7 7/34/7 24/35/7 
f 24/35/7 18/36/7 8/33/7 
s 4
f 25/37/2 26/38/2 27/39/2 
f 27/39/2 21/40/2 25/37/2 
s 1
f 19/28/3 28/41/3 29/42/3 
f 29/42/3 5/25/3 19/28/3 
s 2
f 21/30/5 27/43/5 30/44/5 
f 30/44/5 22/31/6 21/30/5 
s 4
f 31/45/1 32/46/1 28/47/1 
f 28/47/1 19/48/1 31/45/1 
s 1
f 33/49/4 34/50/4 35/51/4 
f 35/51/4 36/52/4 33/49/4 
s 4
f 37/53/8 38/54/8 39/55/8 
f 39/55/8 40/56/8 37/53/8 
s 8
f 41/57/9 37/58/9 40/59/9 
f 40/59/9 42/60/3 41/57/9 
s 2
f 43/61/6 44/62/5 45/63/6 
f 45/63/6 46/64/6 43/61/6 
s 4
f 44/65/1 47/66/1 48/67/1 
f 48/67/1 45/68/1 44/65/1 
s 2
f 46/64/6 45/63/6 49/69/5 
f 49/69/5 50/70/5 46/64/6 
s 4
f 45/68/1 48/67/1 51/71/1 
f 51/71/1 49/72/1 45/68/1 
s 1
f 12/73/1 15/74/1 52/75/1 
f 52/75/1 16/76/1 12/73/1 
s 4
f 21/40/2 20/77/2 53/78/2 
f 53/78/2 25/37/2 21/40/2 
s 16
f 15/79/10 14/80/10 54/81/10 
f 54/81/10 52/82/10 15/79/10 
f 1/83/7 55/84/7 17/22/7 
f 17/22/7 16/21/7 1/83/7 
f 20/85/7 23/86/7 56/87/7 
f 56/87/7 53/88/7 20/85/7 
s 4
f 6/6/2 57/89/2 26/38/2 
f 26/38/2 25/37/2 6/6/2 
f 22/90/1 30/91/1 58/92/1 
f 58/92/1 59/93/1 22/90/1 
s 1
f 60/94/4 61/95/4 62/96/4 
f 62/96/4 63/97/4 60/94/4 
s 4
f 61/98/8 64/99/2 65/100/8 
f 65/100/8 62/101/11 61/98/8 
f 34/102/1 66/103/1 67/104/1 
f 67/104/1 63/105/1 34/102/1 
f 46/106/8 50/107/2 68/108/2 
f 68/108/2 69/109/2 46/106/8 
s 2
f 70/110/5 71/111/5 72/112/5 
f 72/112/5 73/113/5 70/110/5 
s 16
f 74/114/7 70/115/7 73/116/7 
f 73/116/7 75/117/7 74/114/7 
f 71/118/4 76/119/4 77/120/12 
f 77/120/12 72/121/12 71/118/4 
s 1
f 78/122/3 79/123/3 80/124/3 
f 80/124/3 81/125/3 78/122/3 
s 16
f 82/126/4 83/127/10 84/128/10 
f 84/128/10 76/119/4 82/126/4 
s 2
f 85/129/6 86/130/6 71/111/5 
f 71/111/5 70/110/5 85/129/6 
s 16
f 87/131/7 85/132/7 70/115/7 
f 70/115/7 74/114/7 87/131/7 
f 86/133/4 82/126/4 76/119/4 
f 76/119/4 71/118/4 86/133/4 
f 79/134/7 88/135/7 89/136/7 
f 89/136/7 80/137/7 79/134/7 
s 1
f 75/138/13 77/139/13 76/140/13 
f 76/140/13 74/141/13 75/138/13 
s 2
f 89/142/14 84/143/14 81/144/14 
f 81/144/14 80/145/14 89/142/14 
f 90/146/15 91/147/15 77/148/15 
f 77/148/15 75/149/15 90/146/15 
s 1
f 48/150/3 69/151/3 68/152/3 
f 68/152/3 51/153/3 48/150/3 
s 2
f 92/154/16 39/155/16 69/156/16 
f 69/156/16 48/157/17 92/154/16 
f 93/158/18 94/159/18 95/160/18 
f 95/160/18 96/161/18 93/158/18 
s 4
f 97/162/2 98/163/19 38/54/8 
f 38/54/8 37/53/8 97/162/2 
s 8
f 99/164/3 97/165/3 37/58/9 
f 37/58/9 41/57/9 99/164/3 
s 2
f 64/166/5 100/167/5 44/62/5 
f 44/62/5 43/61/6 64/166/5 
s 4
f 100/168/1 67/104/1 47/66/1 
f 47/66/1 44/65/1 100/168/1 
f 46/106/8 69/109/2 101/169/8 
f 101/169/8 43/170/8 46/106/8 
f 42/171/1 92/172/1 102/173/1 
f 102/173/1 41/174/1 42/171/1 
f 43/170/8 101/169/8 65/100/8 
f 65/100/8 64/99/2 43/170/8 
f 41/174/1 102/173/1 66/103/1 
f 66/103/1 99/175/1 41/174/1 
f 36/176/2 35/177/2 98/163/19 
f 98/163/19 97/162/2 36/176/2 
s 8
f 33/178/3 36/179/3 97/165/3 
f 97/165/3 99/164/3 33/178/3 
s 2
f 61/180/5 60/181/5 100/167/5 
f 100/167/5 64/166/5 61/180/5 
s 4
f 60/182/1 63/105/1 67/104/1 
f 67/104/1 100/168/1 60/182/1 
s 1
f 63/97/4 62/96/4 35/51/4 
f 35/51/4 34/50/4 63/97/4 
s 4
f 101/169/8 69/109/2 39/55/8 
f 39/55/8 38/54/8 101/169/8 
f 33/183/1 99/175/1 66/103/1 
f 66/103/1 34/102/1 33/183/1 
s 2
f 42/184/17 40/185/17 39/155/16 
f 39/155/16 92/154/16 42/184/17 
s 4
f 65/100/8 101/169/8 38/54/8 
f 38/54/8 98/163/19 65/100/8 
f 48/67/1 47/66/1 102/173/1 
f 102/173/1 92/172/1 48/67/1 
f 47/66/1 67/104/1 66/103/1 
f 66/103/1 102/173/1 47/66/1 
f 62/101/11 65/100/8 98/163/19 
f 98/163/19 35/177/2 62/101/11 
f 25/37/2 53/78/2 7/7/2 
f 7/7/2 6/6/2 25/37/2 
s 16
f 53/88/7 56/87/7 24/35/7 
f 24/35/7 7/34/7 53/88/7 
s 4
f 59/93/1 58/92/1 32/46/1 
f 32/46/1 31/45/1 59/93/1 
f 5/5/2 29/186/2 57/89/2 
f 57/89/2 6/6/2 5/5/2 
s 16
f 19/187/10 103/188/10 104/189/10 
f 104/189/10 31/190/10 19/187/10 
f 56/87/7 105/191/7 106/192/7 
f 106/192/7 24/35/7 56/87/7 
s 2
f 74/193/14 76/194/14 84/143/14 
f 84/143/14 89/142/14 74/193/14 
f 51/195/18 68/196/18 94/159/18 
f 94/159/18 93/158/18 51/195/18 
s 4
f 68/108/2 50/107/2 107/197/2 
f 107/197/2 108/198/2 68/108/2 
s 1
f 96/199/3 95/200/3 109/201/3 
f 109/201/3 110/202/3 96/199/3 
s 2
f 50/70/5 49/69/5 111/203/6 
f 111/203/6 107/204/6 50/70/5 
s 4
f 93/205/1 96/206/1 110/207/1 
f 110/207/1 112/208/1 93/205/1 
f 94/209/2 68/108/2 108/198/2 
f 108/198/2 113/210/2 94/209/2 
f 49/72/1 51/71/1 114/211/1 
f 114/211/1 111/212/1 49/72/1 
f 51/71/1 93/205/1 112/208/1 
f 112/208/1 114/211/1 51/71/1 
f 95/213/2 94/209/2 113/210/2 
f 113/210/2 109/214/2 95/213/2 
f 108/198/2 107/197/2 115/215/2 
f 115/215/2 116/216/2 108/198/2 
s 1
f 110/202/3 109/201/3 117/217/3 
f 117/217/3 118/218/3 110/202/3 
s 2
f 107/204/6 111/203/6 119/219/6 
f 119/219/6 115/220/5 107/204/6 
s 4
f 112/208/1 110/207/1 118/221/1 
f 118/221/1 120/222/1 112/208/1 
f 113/210/2 108/198/2 116/216/2 
f 116/216/2 121/223/2 113/210/2 
f 111/212/1 114/211/1 122/224/1 
f 122/224/1 119/225/1 111/212/1 
f 114/211/1 112/208/1 120/222/1 
f 120/222/1 122/224/1 114/211/1 
f 109/214/2 113/210/2 121/223/2 
f 121/223/2 117/226/2 109/214/2 
f 116/216/2 115/215/2 27/39/2 
f 27/39/2 26/38/2 116/216/2 
s 1
f 118/218/3 117/217/3 29/42/3 
f 29/42/3 28/41/3 118/218/3 
s 2
f 115/220/5 119/219/6 30/44/5 
f 30/44/5 27/43/5 115/220/5 
s 4
f 120/222/1 118/221/1 28/47/1 
f 28/47/1 32/46/1 120/222/1 
f 121/223/2 116/216/2 26/38/2 
f 26/38/2 57/89/2 121/223/2 
f 119/225/1 122/224/1 58/92/1 
f 58/92/1 30/91/1 119/225/1 
f 122/224/1 120/222/1 32/46/1 
f 32/46/1 58/92/1 122/224/1 
f 117/226/2 121/223/2 57/89/2 
f 57/89/2 29/186/2 117/226/2 
s 1
f 19/28/3 18/27/3 123/227/3 
f 123/227/3 103/228/3 19/28/3 
s 16
f 59/229/12 31/190/10 104/189/10 
f 104/189/10 124/230/12 59/229/12 
s 2
f 125/231/6 23/32/6 22/31/6 
f 22/31/6 126/232/6 125/231/6 
s 16
f 56/87/7 23/86/7 125/233/7 
f 125/233/7 105/191/7 56/87/7 
f 22/234/12 59/229/12 124/230/12 
f 124/230/12 126/235/12 22/234/12 
f 18/36/7 24/35/7 106/192/7 
f 106/192/7 123/236/7 18/36/7 
f 127/237/10 128/238/10 104/189/10 
f 104/189/10 103/188/10 127/237/10 
f 129/239/7 130/240/7 106/192/7 
f 106/192/7 105/191/7 129/239/7 
s 1
f 103/228/3 123/227/3 131/241/13 
f 131/241/13 127/242/13 103/228/3 
s 16
f 124/230/12 104/189/10 128/238/10 
f 128/238/10 132/243/4 124/230/12 
s 2
f 125/231/6 126/232/6 133/244/20 
f 133/244/20 134/245/20 125/231/6 
s 16
f 105/191/7 125/233/7 134/246/7 
f 134/246/7 129/239/7 105/191/7 
f 126/235/12 124/230/12 132/243/4 
f 132/243/4 133/247/4 126/235/12 
f 123/236/7 106/192/7 130/240/7 
f 130/240/7 131/248/7 123/236/7 
f 78/249/10 83/127/10 128/238/10 
f 128/238/10 127/237/10 78/249/10 
f 87/131/7 88/135/7 130/240/7 
f 130/240/7 129/239/7 87/131/7 
s 1
f 127/242/13 131/241/13 79/123/3 
f 79/123/3 78/122/3 127/242/13 
s 16
f 132/243/4 128/238/10 83/127/10 
f 83/127/10 82/126/4 132/243/4 
s 2
f 134/245/20 133/244/20 86/130/6 
f 86/130/6 85/129/6 134/245/20 
s 16
f 129/239/7 134/246/7 85/132/7 
f 85/132/7 87/131/7 129/239/7 
f 133/247/4 132/243/4 82/126/4 
f 82/126/4 86/133/4 133/247/4 
f 131/248/7 130/240/7 88/135/7 
f 88/135/7 79/134/7 131/248/7 
f 81/250/10 84/128/10 83/127/10 
f 83/127/10 78/249/10 81/250/10 
f 74/114/7 89/136/7 88/135/7 
f 88/135/7 87/131/7 74/114/7 
s 4
f 135/251/3 136/252/3 137/253/3 
f 137/253/3 138/254/3 135/251/3 
s 16
f 77/120/12 91/255/10 139/256/10 
f 139/256/10 140/257/4 77/120/12 
s 2
f 73/113/5 72/112/5 141/258/6 
f 141/258/6 142/259/6 73/113/5 
s 16
f 75/117/7 73/116/7 142/260/7 
f 142/260/7 143/261/7 75/117/7 
f 72/121/12 77/120/12 140/257/4 
f 140/257/4 141/262/4 72/121/12 
f 136/263/7 90/264/7 144/265/7 
f 144/265/7 137/266/7 136/263/7 
s 4
f 138/254/3 137/253/3 145/267/13 
f 145/267/13 146/268/13 138/254/3 
s 16
f 140/257/4 139/256/10 147/269/10 
f 147/269/10 148/270/4 140/257/4 
s 2
f 142/259/6 141/258/6 149/271/20 
f 149/271/20 150/272/20 142/259/6 
s 16
f 143/261/7 142/260/7 150/273/7 
f 150/273/7 151/274/7 143/261/7 
f 141/262/4 140/257/4 148/270/4 
f 148/270/4 149/275/10 141/262/4 
f 137/266/7 144/265/7 152/276/7 
f 152/276/7 145/277/7 137/266/7 
s 4
f 146/268/13 145/267/13 10/11/3 
f 10/11/3 9/10/3 146/268/13 
s 16
f 148/270/4 147/269/10 11/14/4 
f 11/14/4 54/81/10 148/270/4 
s 2
f 150/272/20 149/271/20 14/19/6 
f 14/19/6 13/18/6 150/272/20 
s 16
f 151/274/7 150/273/7 13/23/7 
f 13/23/7 17/22/7 151/274/7 
f 149/275/10 148/270/4 54/81/10 
f 54/81/10 14/80/10 149/275/10 
f 145/277/7 152/276/7 55/84/7 
f 55/84/7 10/278/7 145/277/7 
s 1
f 16/76/1 52/75/1 2/2/1 
f 2/2/1 1/1/1 16/76/1 
s 16
f 52/82/10 54/81/10 11/14/4 
f 11/14/4 2/13/4 52/82/10 
f 4/279/7 10/278/7 55/84/7 
f 55/84/7 1/83/7 4/279/7 
s 2
f 136/280/15 135/281/15 91/147/15 
f 91/147/15 90/146/15 136/280/15 
s 16
f 135/282/10 138/283/10 139/256/10 
f 139/256/10 91/255/10 135/282/10 
f 75/117/7 143/261/7 144/265/7 
f 144/265/7 90/264/7 75/117/7 
f 138/283/10 146/284/4 147/269/10 
f 147/269/10 139/256/10 138/283/10 
f 143/261/7 151/274/7 152/276/7 
f 152/276/7 144/265/7 143/261/7 
f 146/284/4 9/15/4 11/14/4 
f 11/14/4 147/269/10 146/284/4 
f 151/274/7 17/22/7 55/84/7 
f 55/84/7 152/276/7 151/274/7 
# 300 faces

